<?xml version="1.0" encoding="UTF-8"?>
<svg width="14px" height="14px" viewBox="0 0 14 14" version="1.1" xmlns="http://www.w3.org/2000/svg" xmlns:xlink="http://www.w3.org/1999/xlink">
    <!-- Generator: Sketch 52.6 (67491) - http://www.bohemiancoding.com/sketch -->
    <title>FocuspointSVG</title>
    <desc>Created with Sketch.</desc>
    <g id="Page-1" stroke="none" stroke-width="1" fill="none" fill-rule="evenodd">
        <g id="FocuspointSVG">
            <polygon id="Shape" fill="#FFFFFF" points="0 0 14 0 14 14 0 14"></polygon>
            <rect id="Rectangle-2" fill="#DADADA" x="2" y="2" width="10" height="10"></rect>
            <rect id="Rectangle-2" fill="#5599FF" x="2" y="3" width="4" height="8"></rect>
            <path d="M0,0 L0,14 L14,14 L14,0 L0,0 Z M1,1 L13,1 L13,13 L1,13 L1,1 Z" id="Shape" fill="#999999" fill-rule="nonzero"></path>
            <rect id="Rectangle-2" fill="#494949" x="5" y="4" width="4" height="1"></rect>
            <rect id="Rectangle-2" fill="#494949" x="8" y="3" width="3" height="4"></rect>
            <rect id="Rectangle-2" fill="#FFFFFF" x="9" y="4" width="1" height="2"></rect>
            <rect id="Rectangle-2" fill="#494949" x="3" y="9" width="6" height="1"></rect>
            <rect id="Rectangle-2" fill="#494949" x="8" y="8" width="3" height="3"></rect>
            <rect id="Rectangle-2" fill="#FFFFFF" x="9" y="9" width="1" height="1"></rect>
        </g>
    </g>
</svg>