<svg xmlns="http://www.w3.org/2000/svg" width="150" height="150" fill="none"><path fill="#1A3553" d="M0 0h150v150H0z"/><path fill="#fff" fill-rule="evenodd" d="M133.057 19.609A2.608 2.608 0 0 0 130.449 17H19.616a2.608 2.608 0 0 0-2.61 2.609v110.833a2.609 2.609 0 0 0 2.61 2.609h110.833a2.608 2.608 0 0 0 2.608-2.609V19.609Zm-5.217 2.608v105.616H22.224V22.218H127.84Z" clip-rule="evenodd"/><path fill="#fff" fill-rule="evenodd" d="M88.447 44.189c-8.843 0-16.024 7.18-16.024 16.024 0 8.844 7.18 16.024 16.024 16.024 8.844 0 16.025-7.18 16.025-16.024 0-8.844-7.18-16.024-16.025-16.024Zm0 5.217c5.961 0 10.807 4.84 10.807 10.807 0 5.96-4.839 10.807-10.807 10.807-5.96 0-10.806-4.84-10.806-10.807 0-5.961 4.839-10.807 10.806-10.807Z" clip-rule="evenodd"/><path fill="#fff" fill-rule="evenodd" d="M128.915 74.046c-10.272 7.441-18.451 10.513-25.872 11.022-7.428.509-14.048-1.546-21.15-4.122-15.262-5.53-32.564-13.46-62.8-7.343a2.612 2.612 0 0 0-2.04 3.071 2.612 2.612 0 0 0 3.071 2.042c28.886-5.85 45.405 1.852 59.982 7.135 7.814 2.83 15.118 4.976 23.283 4.421 8.172-.554 17.257-3.802 28.578-12a2.608 2.608 0 0 0 .581-3.646 2.608 2.608 0 0 0-3.646-.58h.013Z" clip-rule="evenodd"/><path fill="#fff" fill-rule="evenodd" d="M34.16 99.37v10.436a2.608 2.608 0 0 0 2.61 2.608 2.608 2.608 0 0 0 2.608-2.608V99.371a2.608 2.608 0 1 0-5.218 0Zm0-20.87v10.436a2.608 2.608 0 1 0 5.218 0V78.5a2.608 2.608 0 1 0-5.218 0Zm0-20.87v10.436a2.608 2.608 0 1 0 5.218 0V57.63a2.608 2.608 0 1 0-5.218 0Zm0-20.87v10.436a2.608 2.608 0 1 0 5.218 0V36.76a2.608 2.608 0 1 0-5.218 0Z" clip-rule="evenodd"/><path fill="#fff" fill-rule="evenodd" d="M110.686 99.37v10.436a2.608 2.608 0 0 0 2.609 2.608 2.607 2.607 0 0 0 2.609-2.608V99.371a2.609 2.609 0 1 0-5.218 0Zm0-20.87v10.436a2.608 2.608 0 1 0 5.218 0V78.5a2.609 2.609 0 1 0-5.218 0Zm0-20.87v10.436a2.608 2.608 0 1 0 5.218 0V57.63a2.608 2.608 0 1 0-5.218 0Zm0-20.87v10.436a2.608 2.608 0 1 0 5.218 0V36.76a2.608 2.608 0 1 0-5.218 0Z" clip-rule="evenodd"/><path fill="#fff" fill-rule="evenodd" d="M36.768 115.896h10.435a2.608 2.608 0 1 0 0-5.217H36.768a2.608 2.608 0 1 0 0 5.217Zm20.87 0h10.435a2.608 2.608 0 1 0 0-5.217H57.638a2.608 2.608 0 1 0 0 5.217Zm41.74 0h10.435a2.608 2.608 0 1 0 0-5.217H99.378a2.608 2.608 0 1 0 0 5.217Zm-20.87 0h10.435a2.608 2.608 0 1 0 0-5.217H78.508a2.608 2.608 0 1 0 0 5.217Z" clip-rule="evenodd"/><path fill="#fff" fill-rule="evenodd" d="M78.508 39.37h10.435a2.608 2.608 0 1 0 0-5.217H78.508a2.608 2.608 0 1 0 0 5.217Zm20.87 0h10.435a2.608 2.608 0 1 0 0-5.217H99.378a2.608 2.608 0 1 0 0 5.217Zm-62.61 0h10.435a2.608 2.608 0 1 0 0-5.217H36.768a2.608 2.608 0 1 0 0 5.217Zm20.87 0h10.435a2.608 2.608 0 1 0 0-5.217H57.638a2.608 2.608 0 1 0 0 5.217Z" clip-rule="evenodd"/></svg>