<svg xmlns="http://www.w3.org/2000/svg" width="150" height="150"><g fill="none" fill-rule="evenodd"><path fill="#1A3553" d="M0 0h150v150H0z"/><path fill="#FFF" fill-rule="nonzero" d="M73.363 16l-9.996 48.28h.328c6.39-8.674 15.895-13.583 26.217-13.583 17.042 0 24.088 13.911 24.088 28.15C114 104.048 96.63 134 62.548 134c-16.714 0-26.709-7.038-26.546-21.44 0-4.582.655-9.328 1.475-13.747L54.19 16.001h19.172V16zm-17.498 84.43c-.5 2.773-.999 5.708-.832 9.46 0 6.522 3.83 10.11 10.824 10.11C82.843 120 94 98.637 94 83.145 94 74.339 90.17 67 81.177 67c-9.99 0-20.317 10.11-23.646 26.092l-1.666 7.338z"/></g></svg>